<svg xmlns="http://www.w3.org/2000/svg" width="440.116" height="70.711" viewBox="0 0 440.116 70.711">
    <g data-name="Page 1">
        <g data-name="Group 3">
            <path data-name="Fill 1" d="M118.001 55.149a19.285 19.285 0 0 1-19.862-19.697 19.067 19.067 0 0 1 5.571-14.085 19.549 19.549 0 0 1 14.291-5.608 19.862 19.862 0 0 1 14.108 5.242 17.794 17.794 0 0 1 5.66 13.622h-35.918c0 5.128 1.4 9.248 4.179 12.242 2.89 3.052 6.918 4.6 11.972 4.6a18.626 18.626 0 0 0 7.052-1.284c2.648-1.1 5.053-3.363 7.147-6.72l3.429 1.561a18.522 18.522 0 0 1-11.139 9.209 21.386 21.386 0 0 1-6.49.918zm0-35.712c-7.889 0-13.135 3.9-15.594 11.6h31.09a12.846 12.846 0 0 0-5.478-8.469 16.8 16.8 0 0 0-10.018-3.131z" fill="#717171"/>
        </g>
        <path data-name="Fill 4" d="M195.212 55.149a19.28 19.28 0 0 1-19.859-19.697 19.075 19.075 0 0 1 5.568-14.085 19.539 19.539 0 0 1 14.291-5.608 19.837 19.837 0 0 1 14.1 5.242 17.8 17.8 0 0 1 5.671 13.622h-35.921c0 5.125 1.406 9.245 4.182 12.242 2.89 3.052 6.917 4.6 11.968 4.6a18.635 18.635 0 0 0 7.055-1.284c2.648-1.1 5.051-3.364 7.141-6.72l3.435 1.561a18.522 18.522 0 0 1-11.139 9.209 21.4 21.4 0 0 1-6.492.918zm0-35.712c-7.887 0-13.132 3.9-15.591 11.6h31.09a12.866 12.866 0 0 0-5.476-8.465 16.807 16.807 0 0 0-10.023-3.135z" fill="#717171"/>
        <path data-name="Fill 6" d="M267.406 54.41V28.183a8.809 8.809 0 0 0-2.312-6.077 8.532 8.532 0 0 0-6.682-2.578q-9 0-9 8.654V54.41h-3.8V28.183a7.833 7.833 0 0 0-2.6-6.168 9.138 9.138 0 0 0-6.4-2.485 9.085 9.085 0 0 0-6.4 2.393 7.932 7.932 0 0 0-2.618 6.26V54.41h-3.8V16.401h3.8v3.773q2.8-4.326 9.009-4.326 7.419 0 10.951 5.98 3.34-5.98 10.854-5.98a13.224 13.224 0 0 1 9.286 3.222q3.534 3.313 3.532 9.112V54.41z" fill="#717171"/>
        <path data-name="Fill 8" d="M300.356 55.059a19.2 19.2 0 0 1-14.015-5.616 19.034 19.034 0 0 1-5.746-13.991 18.935 18.935 0 0 1 5.746-13.893 18.882 18.882 0 0 1 14.015-5.8 19.251 19.251 0 0 1 14.015 5.7 19.049 19.049 0 0 1 5.749 13.993 18.882 18.882 0 0 1-5.66 13.9 19.359 19.359 0 0 1-14.104 5.707zm0-35.62a15.35 15.35 0 0 0-11.231 4.779 15.578 15.578 0 0 0-.086 22.459 15.542 15.542 0 0 0 11.317 4.7 15.529 15.529 0 0 0 11.317-4.6 15.4 15.4 0 0 0 4.732-11.32 15.379 15.379 0 0 0-4.637-11.32 15.475 15.475 0 0 0-11.412-4.7z" fill="#717171"/>
        <path data-name="Fill 13" d="M377.565 54.413h-3.807V16.4h3.807v38.013zm-1.853-44.825a3.631 3.631 0 0 1-2.135-.827 3.278 3.278 0 0 1-.925-2.209c0-1.647 1.03-2.669 3.06-3.039 1.54 0 2.571 1.022 3.064 3.039 0 2.015-1.031 3.036-3.064 3.036z" fill="#717171"/>
        <g data-name="Group 12">
            <path data-name="Fill 10" d="M348.146 55.055a19.293 19.293 0 0 1-15.681-7.639v6.994h-3.8V0h3.8v23.488a19.137 19.137 0 0 1 15.683-7.639 19.231 19.231 0 0 1 14.017 5.611 19.057 19.057 0 0 1 5.752 13.99 18.882 18.882 0 0 1-5.66 13.9 19.376 19.376 0 0 1-14.111 5.705zm0-35.527a15.533 15.533 0 0 0-11.32 4.606 15.785 15.785 0 0 0 0 22.545 15.565 15.565 0 0 0 11.32 4.7 15.579 15.579 0 0 0 11.326-4.6 15.8 15.8 0 0 0 0-22.554 15.61 15.61 0 0 0-11.326-4.698z" fill="#717171"/>
        </g>
        <path data-name="Fill 15" d="M386.662 54.412h3.712V.001h-3.712z" fill="#717171"/>
        <path data-name="Fill 16" d="M420.349 55.149a19.209 19.209 0 0 1-14.2-5.62 19.068 19.068 0 0 1-5.666-14.077 19.077 19.077 0 0 1 5.574-14.085 19.568 19.568 0 0 1 14.292-5.608 19.876 19.876 0 0 1 14.11 5.242 17.8 17.8 0 0 1 5.657 13.622h-35.912c0 5.132 1.4 9.252 4.173 12.242 2.89 3.052 6.918 4.6 11.972 4.6a18.649 18.649 0 0 0 7.052-1.284c2.647-1.1 5.052-3.361 7.147-6.72l3.435 1.56a18.538 18.538 0 0 1-11.139 9.209 21.4 21.4 0 0 1-6.495.919zm0-35.712c-7.888 0-13.132 3.9-15.588 11.6h31.087a12.838 12.838 0 0 0-5.479-8.465 16.789 16.789 0 0 0-10.02-3.135z" fill="#717171"/>
        <path data-name="Fill 17" d="M170.251 16.401l-14.108 30-14.293-30h-4.083l16.145 34.515-1.715 3.691-7.49 16.1h4.276l7.543-16.1 17.894-38.206z" fill="#717171"/>
    </g>
    <path data-name="Fill 1" d="M39.344 61.174a32.4 32.4 0 0 0 11.271-11.477 31.99 31.99 0 0 0 0-32A32.383 32.383 0 0 0 39.322 6.211a73.352 73.352 0 0 1 42.064 27.486 73.341 73.341 0 0 1-42.039 27.476zm-16.771-5.043a22.436 22.436 0 1 1 22.578-22.437 22.531 22.531 0 0 1-22.578 22.437zm0-35.862a13.43 13.43 0 1 0 13.514 13.425 13.487 13.487 0 0 0-13.514-13.425z" fill="#717171"/>
</svg>
