<svg xmlns="http://www.w3.org/2000/svg" width="120" height="120" viewBox="0 0 120 120">
    <circle data-name="Oval 7" cx="60" cy="60" r="60" fill="#ff6c00"/>
    <g data-name="Grupo 5">
        <g data-name="Grupo 4">
            <path data-name="Caminho 3" d="M61.277 32.042a26.462 26.462 0 1 0 26.462 26.462 26.462 26.462 0 0 0-26.462-26.462zm0 46.541a20.079 20.079 0 1 1 20.079-20.079 20.1 20.1 0 0 1-20.079 20.079z" fill="#fff"/>
        </g>
    </g>
    <g data-name="Grupo 7">
        <g data-name="Grupo 6">
            <path data-name="Caminho 4" d="M61.277 43.809a14.7 14.7 0 1 0 14.694 14.7 14.713 14.713 0 0 0-14.694-14.7z" fill="#fff"/>
        </g>
    </g>
    <g data-name="Grupo 9">
        <g data-name="Grupo 8">
            <path data-name="Caminho 5" d="M98.285 60.724V28.567a.723.723 0 0 0-1.3-.437 30.434 30.434 0 0 0-6.184 18.389v11.764a2.443 2.443 0 0 0 2.443 2.443h1.018c-1 10.369-1.667 24.872-1.667 26.57 0 2.675 1.647 4.844 3.678 4.844s3.678-2.169 3.678-4.844c.002-1.698-.662-16.203-1.666-26.572z" fill="#fff"/>
        </g>
    </g>
    <g data-name="Grupo 11">
        <g data-name="Grupo 10">
            <path data-name="Caminho 6" d="M30.725 54.35a7.031 7.031 0 0 0 3.4-6.022l-1.012-16.484a1.191 1.191 0 0 0-2.378.132l.656 13.22a1.345 1.345 0 0 1-2.691 0l-.328-13.214a1.287 1.287 0 0 0-2.574 0l-.328 13.214a1.345 1.345 0 0 1-2.691 0l.656-13.22a1.191 1.191 0 0 0-2.378-.132l-1.009 16.484a7.031 7.031 0 0 0 3.4 6.022 3.98 3.98 0 0 1 1.892 3.842c-1.149 10.356-1.929 27.263-1.929 29.1 0 2.675 1.647 4.844 3.678 4.844s3.678-2.169 3.678-4.844c0-1.842-.78-18.749-1.929-29.1a3.981 3.981 0 0 1 1.887-3.842z" fill="#fff"/>
        </g>
    </g>
</svg>
